# AST/ASF file generated using VICON BodyLanguage
# -----------------------------------------------
:version 1.10
:name VICON
:units
  mass 1.0
  length 0.45
  angle deg
:documentation
   .ast/.asf automatically generated from VICON data using
   VICON BodyBuilder and BodyLanguage model FoxedUp or BRILLIANT.MOD
:root
   order TX TY TZ RX RY RZ
   axis XYZ
   position 0 0 0  
   orientation 0 0 0 
:bonedata
  begin
     id 1 
     name lhipjoint
     direction 0.610259 -0.730986 0.305356 
     length 2.50941 
     axis 0 0 0  XYZ
  end
  begin
     id 2 
     name lfemur
     direction 0.34202 -0.939693 0  
     length 7.48822  
     axis 0 0 20  XYZ
    dof rx ry rz
    limits (-160.0 20.0)
           (-70.0 70.0)
           (-60.0 70.0)
  end
  begin
     id 3 
     name ltibia
     direction 0.34202 -0.939693 0   
     length 7.60141   
     axis 0 0 20   XYZ
    dof rx
    limits (-10.0 170.0)
  end
  begin
     id 4 
     name lfoot
     direction 0.0673488 -0.185039 0.980421   
     length 2.04049   
     axis -90 7.62852e-016 20   XYZ
    dof rx rz
    limits (-45.0 90.0)
           (-70.0 20.0)
  end
  begin
     id 5 
     name ltoes
     direction 1.5356e-011 -4.21729e-011 1   
     length 1.02897   
     axis -90 7.62852e-016 20   XYZ
    dof rx
    limits (-90.0 20.0)
  end
  begin
     id 6 
     name rhipjoint
     direction -0.57612 -0.754205 0.315056   
     length 2.43216  
     axis 0 0 0  XYZ 
  end
  begin
     id 7 
     name rfemur
     direction -0.34202 -0.939693 0   
     length 7.42799   
     axis 0 0 -20   XYZ
    dof rx ry rz
    limits (-160.0 20.0)
           (-70.0 70.0)
           (-70.0 60.0)
  end
  begin
     id 8 
     name rtibia
     direction -0.34202 -0.939693 0   
     length 7.69484   
     axis 0 0 -20   XYZ
    dof rx
    limits (-10.0 170.0)
 end
 begin
     id 9 
     name rfoot
     direction -0.111837 -0.30727 0.945028   
     length 2.15769  
     axis -90 -7.62852e-016 -20   XYZ
    dof rx rz
    limits (-45.0 90.0)
           (-20.0 70.0)
  end
  begin
     id 10 
     name rtoes
     direction -1.53539e-011 -4.21878e-011 1   
     length 1.07391   
     axis -90 -7.62852e-016 -20   XYZ
    dof rx
    limits (-90.0 20.0)
  end
  begin
     id 11 
     name lowerback
     direction 0.00552624 0.990109 -0.140195   
     length 2.12403   
     axis 0 0 0   XYZ
    dof rx ry rz
    limits (-20.0 45.0)
           (-30.0 30.0)
           (-30.0 30.0)
  end
  begin
     id 12 
     name upperback
     direction 0.00361898 0.999976 -0.00584723   
     length 2.13232   
     axis 0 0 0   XYZ
    dof rx ry rz
    limits (-20.0 45.0)
           (-30.0 30.0)
           (-30.0 30.0)
  end
  begin
     id 13 
     name thorax
     direction -0.000331275 0.998253 0.0590847   
     length 2.17688   
     axis 0 0 0   XYZ
    dof rx ry rz
    limits (-20.0 45.0)
           (-30.0 30.0)
           (-30.0 30.0)
  end
  begin
     id 14 
     name lowerneck
     direction -0.0561561 0.979832 0.19177   
     length 1.64159   
     axis 0 0 0   XYZ
    dof rx ry rz
    limits (-20.0 45.0)
           (-30.0 30.0)
           (-30.0 30.0)
  end
  begin
     id 15 
     name upperneck
     direction 0.0827153 0.979385 -0.184293   
     length 1.68939   
     axis 0 0 0   XYZ
    dof rx ry rz
    limits (-20.0 45.0)
           (-30.0 30.0)
           (-30.0 30.0)
  end
  begin
     id 16
     name head
     direction 0.0278583 0.995936 -0.0856488  
     length 1.70207  
     axis 0 0 0   XYZ
    dof rx ry rz
    limits (-20.0 45.0)
           (-30.0 30.0)
           (-30.0 30.0)
  end
  begin
     id 17 
     name lclavicle
     direction 0.950993 0.301131 -0.0702275  
     length 3.41652  
     axis 0 0 0   XYZ
    dof ry rz
    limits (-20.0 10.0)
           (0.0 20.0)
  end
  begin
     id 18 
     name lhumerus
     direction 1 -4.48981e-011 -3.9662e-029   
     length 5.32955   
     axis 180 -30 -90   XYZ
    dof rx ry rz
    limits (-60.0 90.0)
           (-90.0 90.0)
           (-90.0 90.0)
  end
  begin
     id 19
     name lradius
     direction 1 -4.48925e-011 -9.0549e-027   
     length 3.69232   
     axis 180 -30 -90   XYZ
    dof rx
    limits (-10.0 170.0)
  end
  begin
     id 20
     name lwrist
     direction 1 -4.49007e-011 -1.49005e-026   
     length 1.84616   
     axis 9.0955e-015 90 90   XYZ
    dof ry
    limits (-180.0 0.0)
 end
  begin
     id 21 
     name lhand
     direction 1 -4.49016e-011 -2.98023e-026   
     length 0.536598   
     axis 1.90115e-014 90 90   XYZ
    dof rx rz
    limits (-90.0 90.0)
           (-45.0 45.0)
  end
  begin
     id 22 
     name lfingers
     direction 1 -4.48924e-011 -5.9578e-026   
     length 0.432619   
     axis 3.80223e-014 90 90   XYZ
    dof rx
    limits (0.0 90.0)
  end
  begin
     id 23
     name lthumb
     direction 0.707107 -6.34947e-011 0.707107   
     length 0.621157   
     axis -90 45 -3.84942e-014   XYZ
    dof rx rz
    limits (-45.0 45.0)
           (-45.0 45.0)
  end
  begin
     id 24 
     name rclavicle
     direction -0.955495 0.276497 -0.102848   
     length 3.36357  
     axis 0 0 0   XYZ 
    dof ry rz
    limits (-10.0 20.0)
           (-20.0 0.0)
  end
  begin
     id 25 
     name rhumerus
     direction -1 -4.48961e-011 3.30983e-027  
     length 5.23431   
     axis 180 30 90   XYZ
    dof rx ry rz
    limits (-90.0 60.0)
           (-90.0 90.0)
           (-90.0 90.0)
  end
  begin
     id 26 
     name rradius
     direction -1 -4.48965e-011 -6.63263e-027   
     length 3.55301   
     axis 180 30 90   XYZ
    dof rx
    limits (-10.0 170.0)
  end
  begin
     id 27 
     name rwrist
     direction -1 -4.48942e-011 -1.48958e-026   
     length 1.77651   
     axis 9.0955e-015 -90 -90   XYZ
    dof ry
    limits (-180.0 0.0)
  end
  begin
     id 28
     name rhand
     direction -1 -4.48977e-011 -2.97966e-026   
     length 0.772522   
     axis 1.90115e-014 -90 -90   XYZ
    dof rx rz
    limits (-90.0 90.0)
           (-45.0 45.0)
  end
  begin
     id 29
     name rfingers
     direction -1 -4.49135e-011 -5.96389e-026   
     length 0.622827   
     axis 3.80223e-014 -90 -90   XYZ
    dof rx
    limits (0.0 90.0)
  end
  begin
     id 30
     name rthumb
     direction -0.707107 -6.34969e-011 0.707107   
     length 0.894259   
     axis -90 -45 3.84942e-014   XYZ
    dof rx rz
    limits (-45.0 45.0)
           (-45.0 45.0)
  end
:hierarchy
  begin
    root lhipjoint rhipjoint lowerback
    lhipjoint lfemur
    lfemur ltibia
    ltibia lfoot
    lfoot ltoes
    rhipjoint rfemur
    rfemur rtibia
    rtibia rfoot
    rfoot rtoes
    lowerback upperback
    upperback thorax
    thorax lowerneck lclavicle rclavicle
    lowerneck upperneck
    upperneck head
    lclavicle lhumerus
    lhumerus lradius
    lradius lwrist
    lwrist lhand lthumb
    lhand lfingers
    rclavicle rhumerus
    rhumerus rradius
    rradius rwrist
    rwrist rhand rthumb
    rhand rfingers
  end

#!OML:ASF F:\VICON\USERDATA\INSTALL\rory3\rory3.ASF
:FULLY-SPECIFIED
:DEGREES
1
root -12.4552 17.8033 -16.0801 -1.20251 -1.36078 5.93825
lowerback 11.9614 0.842581 -4.9296
upperback 1.80632 0.444068 -0.721905
thorax -4.84404 0.297292 1.95289
lowerneck -19.729 -5.1344 -12.0025
upperneck 27.3747 -5.93339 8.42004
head 13.1018 -2.77144 4.30736
rclavicle -1.14798e-014 -1.19271e-015
rhumerus -38.0343 -10.949 -80.9319
rradius 31.5128
rwrist 2.46118
rhand -18.4057 11.4997
rfingers 7.12502
rthumb 7.87879 -18.3335
lclavicle -1.14798e-014 -1.19271e-015
lhumerus -27.7779 2.30337 84.4946
lradius 33.6331
lwrist -6.47445
lhand -20.1701 27.798
lfingers 7.12502
lthumb 6.17557 57.688
rfemur -22.4747 -6.30592 13.1603
rtibia 68.0984
rfoot -5.81943 -5.04741
rtoes 10.2692
lfemur -2.04373 -0.276758 -31.3994
ltibia 14.8407
lfoot -6.34715 -8.98185
ltoes 4.30704
2
root -12.4633 17.7748 -15.9515 -1.26398 -1.27827 6.03608
lowerback 11.8929 0.779884 -5.13236
upperback 1.86496 0.343847 -0.676431
thorax -4.7385 0.248339 2.13145
lowerneck -19.9279 -5.17258 -12.1228
upperneck 27.4706 -5.95012 8.48863
head 13.1927 -2.77972 4.3548
rclavicle 8.39865e-015 -1.98785e-015
rhumerus -38.1506 -10.8524 -80.7715
rradius 31.5615
rwrist 2.57652
rhand -18.4525 11.5941
rfingers 7.12502
rthumb 7.83363 -18.2408
lclavicle 8.39865e-015 -1.98785e-015
lhumerus -27.2366 1.96152 84.7153
lradius 33.7439
lwrist -5.9164
lhand -20.4828 27.2846
lfingers 7.12502
lthumb 5.87368 57.1831
rfemur -23.3719 -6.24812 13.129
rtibia 67.2146
rfoot -6.62605 -5.0227
rtoes 9.61948
lfemur -1.93936 -0.332204 -31.5189
ltibia 15.7668
lfoot -6.95623 -9.12957
ltoes 5.80939
3
root -12.474 17.7553 -15.8218 -1.35182 -1.0943 6.09286
lowerback 11.9305 0.691799 -5.26699
upperback 1.89423 0.209189 -0.667873
thorax -4.71875 0.183324 2.2376
lowerneck -19.919 -5.18511 -12.0404
upperneck 27.2957 -5.94502 8.35393
head 13.1099 -2.78432 4.28094
rclavicle -2.03754e-015 -9.14409e-015
rhumerus -38.2574 -10.8859 -80.6287
rradius 31.5124
rwrist 2.74125
rhand -18.3057 12.0433
rfingers 7.12502
rthumb 7.97533 -17.7862
lclavicle -2.03754e-015 -9.14409e-015
lhumerus -26.7355 1.48928 84.8658
lradius 33.9044
lwrist -5.43031
lhand -20.8298 27.0066
lfingers 7.12502
lthumb 5.53869 56.9142
rfemur -24.1051 -6.21249 13.1542
rtibia 66.151
rfoot -7.04848 -4.82153
rtoes 5.77855
lfemur -1.67815 -0.252713 -31.5763
ltibia 16.4781
lfoot -7.98111 -9.19451
ltoes 3.95372
4
root -12.4842 17.735 -15.6894 -1.42754 -0.953531 6.19054
lowerback 11.9961 0.616621 -5.40184
upperback 1.82057 0.0840276 -0.693958
thorax -4.82306 0.127638 2.30577
lowerneck -19.632 -5.14211 -12.0023
upperneck 27.0374 -5.90524 8.31511
head 12.9361 -2.77107 4.25894
rclavicle -1.00883e-014 2.38542e-015
rhumerus -38.4811 -11.0478 -80.4835
rradius 31.3528
rwrist 2.94235
rhand -18.4533 12.4514
rfingers 7.12502
rthumb 7.83281 -17.3835
lclavicle -1.00883e-014 2.38542e-015
lhumerus -26.4807 0.946966 84.9703
lradius 34.1745
lwrist -4.96937
lhand -20.827 27.0389
lfingers 7.12502
lthumb 5.54141 56.9465
rfemur -24.817 -6.18078 13.1175
rtibia 65.0314
rfoot -7.82753 -4.81496
rtoes 5.67876
lfemur -1.35322 -0.319622 -31.6997
ltibia 17.055
lfoot -9.18653 -8.57859
ltoes 0.223669
5
root -12.4919 17.711 -15.5604 -1.43137 -0.817628 6.33651
lowerback 11.9627 0.541479 -5.57357
upperback 1.74849 -0.0378375 -0.6916
thorax -4.87061 0.0732029 2.42429
lowerneck -19.5589 -5.08938 -12.1179
upperneck 27.1341 -5.84881 8.45442
head 12.9623 -2.74351 4.34848
rclavicle 6.85807e-015 6.75868e-015
rhumerus -38.6879 -11.058 -80.2914
rradius 31.2301
rwrist 2.96981
rhand -18.5669 12.5587
rfingers 7.12502
rthumb 7.72315 -17.2803
lclavicle 6.85807e-015 6.75868e-015
lhumerus -26.2161 0.614627 85.1375
lradius 34.4274
lwrist -4.64159
lhand -20.6295 26.8166
lfingers 7.12502
lthumb 5.7321 56.719
rfemur -25.6288 -6.17769 13.0311
rtibia 63.7864
rfoot -8.54131 -4.75733
rtoes 5.40436
lfemur -1.12369 -0.567752 -31.8864
ltibia 17.5845
lfoot -9.9995 -7.98949
ltoes -1.8234
6
root -12.5038 17.6905 -15.4336 -1.37503 -0.707546 6.45185
lowerback 11.8472 0.434635 -5.79032
upperback 1.72359 -0.198678 -0.667511
thorax -4.81848 -0.0029096 2.59687
lowerneck -19.7155 -4.99553 -12.1388
upperneck 27.3039 -5.70874 8.49523
head 13.048 -2.67804 4.39864
rclavicle -3.23025e-015 9.14409e-015
rhumerus -38.7259 -11.1006 -80.1192
rradius 31.0849
rwrist 3.13808
rhand -18.2602 12.4671
rfingers 7.12502
rthumb 8.01917 -17.3608
lclavicle -3.23025e-015 9.14409e-015
lhumerus -25.7988 0.355673 85.2596
lradius 34.5535
lwrist -4.07017
lhand -21.0441 26.366
lfingers 7.12502
lthumb 5.33181 56.279
rfemur -26.4893 -6.09396 13.0273
rtibia 62.3992
rfoot -8.95377 -4.82577
rtoes 4.71635
lfemur -0.87669 -0.596266 -31.9856
ltibia 17.8718
lfoot -10.6273 -7.97175
ltoes -1.74717
7
root -12.5167 17.6616 -15.3056 -1.36568 -0.676556 6.45127
lowerback 11.8145 0.384683 -5.89065
upperback 1.71339 -0.273759 -0.631057
thorax -4.80381 -0.0380686 2.70336
lowerneck -19.6778 -4.95812 -12.2226
upperneck 27.1724 -5.66012 8.61306
head 12.9867 -2.64944 4.46461
rclavicle 1.0635e-014 -1.59028e-015
rhumerus -38.7585 -11.3072 -79.953
rradius 30.9645
rwrist 3.40188
rhand -18.1527 12.3395
rfingers 7.12502
rthumb 8.12296 -17.4843
lclavicle 1.0635e-014 -1.59028e-015
lhumerus -25.3679 0.0492702 85.3357
lradius 34.7226
lwrist -3.71669
lhand -20.842 26.6576
lfingers 7.12502
lthumb 5.5269 56.5655
rfemur -27.2156 -5.9179 13.1571
rtibia 60.8934
rfoot -9.56805 -4.78998
rtoes 3.81633
lfemur -0.448951 -0.619605 -31.9624
ltibia 17.9732
lfoot -11.1891 -7.90688
ltoes -2.3847
8
root -12.5283 17.6491 -15.1765 -1.37426 -0.700844 6.44755
lowerback 11.8183 0.38202 -5.94986
upperback 1.74244 -0.283351 -0.619471
thorax -4.77398 -0.0431345 2.75037
lowerneck -19.572 -4.99621 -12.4597
upperneck 26.9125 -5.73476 8.93846
head 12.8883 -2.66411 4.61403
rclavicle -1.59028e-015 6.75868e-015
rhumerus -38.7844 -11.4224 -79.9027
rradius 30.9061
rwrist 3.45831
rhand -18.4404 12.4884
rfingers 7.12502
rthumb 7.84534 -17.346
lclavicle -1.59028e-015 6.75868e-015
lhumerus -24.8106 -0.203261 85.3375
lradius 34.9857
lwrist -4.09876
lhand -19.501 27.7927
lfingers 7.12502
lthumb 6.82154 57.6628
rfemur -27.757 -5.64246 13.2879
rtibia 59.2042
rfoot -10.0412 -4.72117
rtoes 3.85241
lfemur 0.0869417 -0.645785 -31.9339
ltibia 17.9125
lfoot -11.5111 -7.80922
ltoes -1.75671
9
root -12.5413 17.6449 -15.0417 -1.35178 -0.696525 6.44057
lowerback 11.7311 0.338347 -6.05632
upperback 1.74729 -0.346194 -0.582853
thorax -4.71376 -0.0738723 2.85811
lowerneck -19.6442 -4.99383 -12.5068
upperneck 26.8932 -5.71458 8.96944
head 12.8955 -2.65445 4.6371
rclavicle 9.24349e-015 -2.34566e-014
rhumerus -38.8738 -11.553 -79.7626
rradius 30.8015
rwrist 3.66077
rhand -18.2972 12.7042
rfingers 7.12502
rthumb 7.9835 -17.125
lclavicle 9.24349e-015 -2.34566e-014
lhumerus -24.3317 -0.264775 85.3591
lradius 35.2141
lwrist -4.59024
lhand -18.6256 28.2159
lfingers 7.12502
lthumb 7.66657 58.0569
rfemur -28.1951 -5.39166 13.4083
rtibia 57.3661
rfoot -9.63392 -5.02236
rtoes 6.61239
lfemur 0.704358 -0.585922 -31.8804
ltibia 17.5964
lfoot -11.6379 -7.83593
ltoes -0.646969
